:SAMPLES-PER-SECOND 30
:FULLY-SPECIFIED
:DEGREES
528
root  62.3765 37.3533 2.41633 -157.356 85.0668 -152.567
RightUpLeg  -19.9151 -3.18036 3.598
RightLeg  22.9782 2.6452 1.00987
RightFoot  2.81107 0.458412 -3.51512
RightToes  -1.33073e-015 0 -3.6325e-017
Spine  3.18112 -1.76601 7.6239
Spine1  5.81746 -1.97187 3.9065
HEad  -17.6955 4.65926 -6.56656
LeftShoulder1  -0.600108 4.94881 -35.343
LeftArm  8.45598 5.85272 -43.2414
LeftForeArm  25.838 -16.9103 -6.59076
LeftHand  -0.0849883 8.86378 -1.3886
RightShoulder  -1.05485 -6.33093 30.7637
RightArm  15.38 -6.41416 38.6276
RightForeArm  19.3838 7.53258 7.18679
RightHand  0.0348455 2.39184 0.324638
LeftUpLeg  6.98993 4.36651 2.81432
LeftLeg  44.1489 -4.54563 -4.28157
LeftFoot  -5.11397 0.528222 -9.64691
LeftToes  -1.63346e-009 7.54925e-011 9.86887e-012
529
root  63.298 37.419 2.42234 -152.257 84.4019 -147.68
RightUpLeg  -18.9729 -3.31812 4.35017
RightLeg  23.8084 2.32817 0.908841
RightFoot  0.621319 0.3483 -3.2928
RightToes  -1.33073e-015 0 -3.6325e-017
Spine  4.27537 -1.65923 8.69799
Spine1  5.10483 -1.68713 4.21905
HEad  -18.3121 1.90069 -5.38834
LeftShoulder1  -0.569983 4.86657 -35.6301
LeftArm  7.05805 8.03644 -41.8247
LeftForeArm  30.7606 -14.9521 -7.64963
LeftHand  -0.155011 8.54095 -3.70741
RightShoulder  -1.05296 -6.33529 30.6314
RightArm  16.3 -3.82168 39.6099
RightForeArm  15.513 10.0514 7.13983
RightHand  -0.0131782 3.03484 -0.418816
LeftUpLeg  0.83478 4.01071 3.96075
LeftLeg  53.4204 -3.04417 -3.8884
LeftFoot  5.21214 1.26683 -8.90867
LeftToes  -1.63346e-009 7.54925e-011 9.86887e-012
530
root  64.2372 37.5418 2.36631 -150.481 84.4964 -145.851
RightUpLeg  -17.5023 -3.62237 4.4778
RightLeg  24.2708 2.64103 1.07864
RightFoot  -1.10333 0.310277 -3.53506
RightToes  -1.33073e-015 0 -3.6325e-017
Spine  3.13207 -1.19743 9.80417
Spine1  7.80779 -1.06532 3.8005
HEad  -20.1516 1.3898 -4.99505
LeftShoulder1  -0.573961 4.86398 -35.9921
LeftArm  6.55094 9.8545 -40.4747
LeftForeArm  32.9569 -14.4798 -7.83291
LeftHand  -0.225111 9.0966 -5.23361
RightShoulder  -0.941673 -6.07596 30.0354
RightArm  16.881 -1.13298 41.4577
RightForeArm  12.743 13.5077 6.26213
RightHand  0.00293025 3.31985 -0.161643
LeftUpLeg  -3.77771 4.46558 4.40361
LeftLeg  59.4357 -1.35497 -1.96298
LeftFoot  6.09116 1.10866 -7.41498
LeftToes  -1.63346e-009 7.54925e-011 9.86887e-012
531
root  65.219 37.7828 2.36442 -152.874 84.9381 -148.143
RightUpLeg  -15.2759 -3.26311 4.11653
RightLeg  23.545 2.60672 0.928213
RightFoot  -2.53921 0.234511 -3.27026
RightToes  -1.33073e-015 0 -3.6325e-017
Spine  2.43225 -0.605678 9.97535
Spine1  9.21082 -0.327533 3.11969
HEad  -20.2117 1.04893 -4.71907
LeftShoulder1  -0.576949 4.8732 -35.9249
LeftArm  6.55066 12.6152 -38.8605
LeftForeArm  32.8612 -14.6067 -7.70916
LeftHand  -0.237553 9.1762 -5.46813
RightShoulder  -0.854056 -5.84273 29.9065
RightArm  18.5672 0.430956 42.5787
RightForeArm  10.5278 18.6587 4.78313
RightHand  0.0660595 2.37701 0.800549
LeftUpLeg  -7.83121 5.06119 4.40057
LeftLeg  62.7293 -0.637787 -0.744983
LeftFoot  4.36362 0.566112 -4.31718
LeftToes  -1.63346e-009 7.54925e-011 9.86887e-012
532
root  66.1338 37.977 2.32802 -154.059 85.0461 -149.445
RightUpLeg  -13.3424 -3.5521 3.98887
RightLeg  22.6846 2.89101 0.889813
RightFoot  -3.73362 0.178805 -3.05967
RightToes  -1.33073e-015 0 -3.6325e-017
Spine  2.50782 -0.172927 11.0303
Spine1  9.05209 0.500975 1.696
HEad  -20.2394 0.290405 -4.57263
LeftShoulder1  -0.541136 4.79532 -35.7064
LeftArm  4.94338 15.3393 -37.0163
LeftForeArm  32.7277 -13.6844 -7.97793
LeftHand  -0.210364 9.29952 -4.39134
RightShoulder  -0.850448 -5.84002 29.7909
RightArm  20.5109 5.51277 44.5777
RightForeArm  6.67422 16.122 6.00171
RightHand  -0.0354045 4.97749 -0.670091
LeftUpLeg  -11.7265 5.21069 4.50345
LeftLeg  63.3349 -0.208806 0.162854
LeftFoot  2.64512 0.402499 -3.40609
LeftToes  -1.63346e-009 7.54925e-011 9.86887e-012
533
root  67.0458 38.2011 2.24108 -160.281 85.7986 -155.977
RightUpLeg  -11.5659 -4.90723 2.96892
RightLeg  21.7022 4.61444 1.56724
RightFoot  -4.88307 0.136853 -3.01961
RightToes  -1.33073e-015 0 -3.6325e-017
Spine  1.87304 0.403435 11.018
Spine1  9.44155 1.21129 0.716915
HEad  -19.3737 -0.060664 -4.92938
LeftShoulder1  -0.519372 4.73994 -35.8156
LeftArm  3.87325 17.5983 -35.0535
LeftForeArm  30.8471 -12.6197 -8.36454
LeftHand  -0.11427 8.85121 -2.15085
RightShoulder  -0.829337 -5.79509 29.5782
RightArm  23.8149 8.94693 45.9342
RightForeArm  3.69314 17.5315 5.94391
RightHand  -0.162984 6.58267 -1.94092
LeftUpLeg  -14.8017 5.58226 3.66501
LeftLeg  60.5708 -0.161262 0.26853
LeftFoot  0.585091 0.237774 -2.30859
LeftToes  -1.63346e-009 7.54925e-011 9.86887e-012
534
root  67.9413 38.4282 2.1644 -168.364 86.4237 -163.765
RightUpLeg  -8.93114 -5.97122 1.99596
RightLeg  20.2674 6.0747 1.95776
RightFoot  -5.42759 0.157614 -3.75388
RightToes  -1.33073e-015 0 -3.6325e-017
Spine  2.13312 0.860207 10.9837
Spine1  9.24986 1.89801 -0.454722
HEad  -18.4721 -0.758447 -5.10628
LeftShoulder1  -0.490605 4.67699 -35.6302
LeftArm  2.06446 19.7546 -33.6257
LeftForeArm  30.6931 -11.8572 -8.30297
LeftHand  -0.135937 9.61843 -2.18996
RightShoulder  -0.842496 -5.83405 29.5432
RightArm  26.4363 12.0856 47.2305
RightForeArm  3.38362 18.6944 5.68128
RightHand  -0.12059 5.65113 -1.5957
LeftUpLeg  -16.0145 5.51804 3.0059
LeftLeg  54.4415 -0.352903 -0.0441463
LeftFoot  -0.875816 0.151249 -1.61461
LeftToes  -1.63346e-009 7.54925e-011 9.86887e-012
535
root  68.7915 38.588 2.08965 -173.091 87.0051 -168.801
RightUpLeg  -7.12208 -6.60845 1.33259
RightLeg  18.9379 7.28162 2.23338
RightFoot  -6.14461 0.134609 -3.87703
RightToes  -1.33073e-015 0 -3.6325e-017
Spine  1.82996 1.28558 10.4051
Spine1  8.97084 2.19805 -0.678277
HEad  -17.9611 -0.0544994 -5.86202
LeftShoulder1  -0.495248 4.69132 -35.5105
LeftArm  -0.0177448 21.7114 -32.7614
LeftForeArm  31.6826 -11.2617 -7.99615
LeftHand  -0.250543 11.2835 -3.48019
RightShoulder  -0.840402 -5.84725 29.2507
RightArm  30.6985 15.4344 48.3793
RightForeArm  1.57445 19.6712 5.64291
RightHand  -0.169186 6.20772 -1.98827
LeftUpLeg  -16.7335 5.4541 2.65539
LeftLeg  45.4115 -0.351509 0.000265273
LeftFoot  -1.79394 0.186743 -2.10306
LeftToes  -1.63346e-009 7.54925e-011 9.86887e-012
536
root  69.6522 38.7561 2.01535 -168.26 87.5987 -165.304
RightUpLeg  -6.24444 -6.41422 1.36221
RightLeg  17.074 7.78185 2.1688
RightFoot  -6.23365 0.149239 -4.28883
RightToes  -1.33073e-015 0 -3.6325e-017
Spine  -0.44513 1.89935 10.4864
Spine1  9.8777 2.62238 -1.59691
HEad  -18.0223 0.11999 -6.28732
LeftShoulder1  -0.433653 4.5522 -35.1906
LeftArm  -1.40082 22.6743 -32.1698
LeftForeArm  31.073 -10.7639 -7.72283
LeftHand  -0.341338 11.6952 -4.43938
RightShoulder  -0.880376 -5.94902 29.4109
RightArm  35.6726 19.42 49.6631
RightForeArm  -1.96964 18.8713 6.43867
RightHand  -0.31552 6.927 -3.30119
LeftUpLeg  -17.0872 5.20645 2.82652
LeftLeg  33.1988 0.280232 0.509819
LeftFoot  -1.66555 0.241648 -2.7556
LeftToes  -1.63346e-009 7.54925e-011 9.86887e-012
537
root  70.4594 38.8804 1.9807 -157.664 87.8351 -155.474
RightUpLeg  -4.75672 -5.95669 1.66241
RightLeg  15.0756 7.76112 1.86167
RightFoot  -6.41231 0.15168 -4.52367
RightToes  -1.33073e-015 0 -3.6325e-017
Spine  -1.491 2.31658 10.806
Spine1  9.9788 3.07573 -2.86011
HEad  -17.4621 -0.0393125 -6.33154
LeftShoulder1  -0.430463 4.54642 -35.1121
LeftArm  -2.92336 22.7477 -31.3965
LeftForeArm  33.6276 -9.00831 -7.85308
LeftHand  -0.0783418 9.34061 -0.743008
RightShoulder  -0.837922 -5.86094 28.9399
RightArm  36.3171 20.5575 51.0126
RightForeArm  0.891853 20.1062 5.68462
RightHand  -0.0985135 5.99843 -1.35005
LeftUpLeg  -15.5727 4.2153 3.46228
LeftLeg  18.7046 0.983166 0.757634
LeftFoot  -0.979339 0.43208 -4.68293
LeftToes  -1.63346e-009 7.54925e-011 9.86887e-012
538
root  71.2838 38.9682 1.97294 -133.953 87.8179 -132.113
RightUpLeg  -2.83587 -4.81142 2.68023
RightLeg  13.0807 7.2508 1.11641
RightFoot  -6.61328 0.129243 -4.22124
RightToes  -1.33073e-015 0 -3.6325e-017
Spine  -3.05966 2.60517 10.9998
Spine1  11.3556 3.35489 -3.58777
HEad  -18.1991 0.94891 -6.59981
LeftShoulder1  -0.438678 4.56319 -35.2306
LeftArm  -2.81656 22.0914 -30.7281
LeftForeArm  34.715 -8.24419 -8.03648
LeftHand  -0.201731 10.9906 -2.74099
RightShoulder  -0.79487 -5.75675 28.659
RightArm  37.8028 22.3749 52.5124
RightForeArm  1.33945 19.7525 5.90902
RightHand  -0.080857 6.0057 -1.15632
LeftUpLeg  -13.5021 4.46785 4.43536
LeftLeg  5.89554 -0.402236 0.411718
LeftFoot  3.24453 0.635619 -5.15098
LeftToes  -1.63346e-009 7.54925e-011 9.86887e-012
539
root  72.1044 38.9389 1.9516 -118.973 87.1705 -117.488
RightUpLeg  -1.55129 -4.03086 3.72681
RightLeg  12.4356 6.4979 0.76527
RightFoot  -7.39826 0.102758 -4.414
RightToes  -1.33073e-015 0 -3.6325e-017
Spine  -5.24915 2.39567 9.29379
Spine1  13.0815 2.59911 -2.00225
HEad  -17.6884 1.11514 -6.17905
LeftShoulder1  -0.433342 4.55391 -35.0906
LeftArm  -3.18451 21.8534 -31.2837
LeftForeArm  35.146 -7.3679 -8.14302
LeftHand  -0.136321 10.2964 -1.38507
RightShoulder  -0.818051 -5.81705 28.7518
RightArm  39.8392 24.7757 54.1228
RightForeArm  1.88316 18.5546 6.70564
RightHand  -0.096004 6.28719 -1.28551
LeftUpLeg  -12.741 6.51474 5.23874
LeftLeg  -0.554284 -5.54164 -0.693904
LeftFoot  8.32972 1.04677 -6.27432
LeftToes  -1.63346e-009 7.54925e-011 9.86887e-012
